<?xml version="1.0" encoding="utf-8"?>
<!-- Generator: Adobe Illustrator 21.0.2, SVG Export Plug-In . SVG Version: 6.00 Build 0)  -->
<svg version="1.1" id="Layer_1" xmlns="http://www.w3.org/2000/svg" xmlns:xlink="http://www.w3.org/1999/xlink" x="0px" y="0px"
	 viewBox="0 0 623.6 113.4" style="enable-background:new 0 0 623.6 113.4;" xml:space="preserve">
<style type="text/css">
	.st0{clip-path:url(#SVGID_2_);fill:#283948;}
</style>
<g>
	<defs>
		<rect id="SVGID_1_" x="3.9" y="6.9" width="615.9" height="99.6"/>
	</defs>
	<clipPath id="SVGID_2_">
		<use xlink:href="#SVGID_1_"  style="overflow:visible;"/>
	</clipPath>
	<path class="st0" d="M498.3,60.9c0,10-3.5,19.1-9.4,26.3c-0.9-0.3-1.8-0.5-2.8-0.5c-4.4,0-8,3.6-8,8.1c0,0.6,0.1,1.2,0.2,1.7
		c-6.3,3.9-13.7,6.1-21.7,6.1c-20,0-36.7-14.1-40.7-32.9c4.8-1.2,8.4-5.5,8.4-10.7c0-4.9-3.2-8.9-7.6-10.4
		c4.9-15.9,19-27.7,36.1-29.2c0.8,5.3,5.3,9.5,10.9,9.5c4.3,0,8-2.5,9.8-6.1C488.1,29.3,498.3,43.9,498.3,60.9 M470.8,17.9
		c0,3.9-3.2,7-7,7s-7-3.2-7-7c0-3.9,3.2-7,7-7S470.8,14,470.8,17.9 M413.4,52c3.9,0,7,3.2,7,7s-3.2,7-7,7c-3.9,0-7-3.2-7-7
		S409.5,52,413.4,52 M482,94.7c0-2.3,1.9-4.2,4.2-4.2c2.3,0,4.2,1.9,4.2,4.2s-1.9,4.2-4.2,4.2C483.9,98.9,482,97.1,482,94.7
		 M474.6,19.1c0-0.4,0.1-0.8,0.1-1.2c0-6.1-4.9-11-11-11c-5.3,0-9.6,3.7-10.7,8.6c-19.1,1.5-34.9,14.8-40.1,32.6
		c-5.9,0.2-10.6,5-10.6,11c0,5.6,4.2,10.2,9.6,10.9c4.2,20.9,22.6,36.6,44.7,36.6c8.6,0,16.6-2.4,23.5-6.6c1.5,1.7,3.6,2.8,6.1,2.8
		c4.4,0,8-3.6,8-8c0-2.1-0.8-3.9-2.1-5.3c6.3-7.8,10-17.7,10-28.5C502.2,42.1,490.8,26,474.6,19.1"/>
	<path class="st0" d="M484.5,54.1v-2.5H482v2.5c0,0.9-0.1,1.6-0.2,2c-0.2,0.4-0.4,0.6-0.9,0.6c-0.4,0-0.7-0.2-0.9-0.6
		c-0.2-0.4-0.2-1.1-0.2-2V46c0-0.8,0.1-1.5,0.2-1.9c0.2-0.4,0.5-0.6,0.9-0.6c0.4,0,0.7,0.2,0.9,0.6c0.1,0.4,0.2,1,0.2,1.9v2.2h2.5
		v-2.4c0-3.1-1.2-4.7-3.5-4.7c-0.7,0-1.3,0.1-1.8,0.4c-1.3,0.7-2,2.3-2,4.9v7.6c0,1.6,0.3,2.9,0.9,3.7c0.6,0.9,1.5,1.3,2.8,1.3
		c1.2,0,2.2-0.4,2.7-1.2C484.2,57.1,484.5,55.8,484.5,54.1 M474.8,41.4h-2.6v17.5h2.6V41.4z M468.8,58.9V43.7h1.9v-2.3h-6.4v2.3h2
		v15.2H468.8z M457.2,57.8c0.5,0.9,1.4,1.3,2.8,1.3s2.2-0.4,2.8-1.2s0.8-2,0.8-3.6c0-0.9-0.2-1.8-0.5-2.6c-0.4-0.8-0.9-1.6-1.6-2.4
		l-1.4-1.6c-0.5-0.5-0.8-0.9-1-1.3c-0.2-0.3-0.3-0.8-0.3-1.3c0-0.6,0.1-1,0.3-1.3c0.2-0.3,0.5-0.4,0.9-0.4c0.4,0,0.7,0.2,0.8,0.6
		c0.1,0.4,0.2,1,0.2,1.8v1.3h2.4V46c0-1.6-0.2-2.8-0.7-3.6c-0.5-0.8-1.3-1.2-2.7-1.2c-1.3,0-2.2,0.4-2.8,1.1
		c-0.5,0.7-0.8,1.8-0.8,3.2c0,0.9,0.2,1.7,0.5,2.3c0.3,0.7,0.8,1.3,1.4,2l1.2,1.3c0.6,0.6,1,1.2,1.2,1.7s0.4,1.2,0.4,1.9
		c0,0.7-0.1,1.3-0.2,1.6c-0.1,0.3-0.4,0.5-0.9,0.5c-0.4,0-0.7-0.2-0.9-0.6c-0.2-0.4-0.2-1.1-0.2-2.1v-1.8h-2.4V54
		C456.4,55.7,456.7,56.9,457.2,57.8 M449.1,58.9l0.4-3.1h2.7l0.4,3.1h2.4l-2.6-17.5h-3.4l-2.4,17.5H449.1z M449.7,53.7l1-8.8h0
		l1.1,8.8H449.7z M446,58.9v-2.3h-3.2V41.4h-2.6v17.5H446z M433.7,43.5h0.9c0.5,0,0.8,0.2,1,0.7c0.2,0.4,0.3,1.2,0.3,2.2v0.3
		c0,1.2-0.1,2-0.2,2.5c-0.2,0.4-0.5,0.7-1.1,0.7h-0.9V43.5z M433.7,58.9V52h1.4c1.3,0,2.2-0.4,2.6-1.3c0.5-0.9,0.7-2.2,0.7-4v-0.4
		c0-1.6-0.3-2.9-0.8-3.7c-0.5-0.8-1.4-1.2-2.7-1.2h-3.9v17.5H433.7z"/>
	<path class="st0" d="M487.8,80.7v-2.3h-3.2V63.2H482v17.5H487.8z M474.3,80.7l0.4-3.1h2.7l0.4,3.1h2.4l-2.6-17.5h-3.4l-2.4,17.5
		H474.3z M474.9,75.5l1-8.8h0l1.1,8.8H474.9z M465.5,65.3h0.9c0.6,0,0.9,0.1,1.1,0.4c0.2,0.3,0.2,0.9,0.2,1.9v0.1
		c0,0.8,0,1.3-0.1,1.7c-0.1,0.4-0.2,0.6-0.3,0.8c-0.2,0.2-0.4,0.2-0.7,0.2h-1V65.3z M467.4,72.9c0.2,0.3,0.3,0.8,0.3,1.5
		c0,4.1,0,6.1,0.1,6.3h2.6c-0.1-0.2-0.1-1.4-0.1-3.6c0-2.2-0.1-3.7-0.3-4.4c-0.2-0.7-0.6-1.1-1.2-1.2c0.6-0.2,1-0.6,1.2-1.1
		c0.2-0.6,0.3-1.4,0.3-2.4c0-1.1-0.1-1.9-0.2-2.6c-0.1-0.7-0.4-1.2-0.9-1.5c-0.4-0.4-1.1-0.6-2-0.6H463v17.5h2.6v-8.3l0.8,0
		C466.9,72.5,467.3,72.6,467.4,72.9 M459.7,80.7V65.5h1.9v-2.3h-6.4v2.3h2v15.2H459.7z M453.8,76.2v-13h-2.6v13c0,0.5,0,1-0.1,1.3
		s-0.1,0.6-0.3,0.8c-0.2,0.2-0.4,0.3-0.8,0.3c-0.4,0-0.6-0.1-0.7-0.2c-0.1-0.2-0.2-0.3-0.3-0.5c-0.1-0.2-0.1-0.8-0.1-1.7v-13h-2.6
		v13c0,1.6,0.3,2.8,0.9,3.6c0.6,0.8,1.5,1.1,2.8,1.1c1.3,0,2.2-0.4,2.8-1.1C453.5,79,453.8,77.8,453.8,76.2 M444.5,80.7v-2.3h-3.2
		v-5.6h2.9v-2.2h-2.9v-5.1h3.1v-2.3h-5.6v17.5H444.5z M430.8,80.7v-6.3l-0.1-4.6l3.7,10.9h1.8V63.2h-2.3v5.7l0.2,4.8l-3.6-10.5h-2
		v17.5H430.8z"/>
	<path class="st0" d="M246.1,89.9h0.3c1.2,0,2.2,0.1,2.2,1.6c0,1.3-1.1,1.6-2.2,1.6h-0.3V89.9z M246.4,89h-1.3v8.7h1v-3.8h0.2
		l2.6,3.8h1.2l-2.8-3.9c1.3-0.1,2.2-1.1,2.2-2.4C249.6,89.4,248.1,89,246.4,89 M241.4,93.4c0-3.2,2.6-5.8,5.8-5.8
		c3.2,0,5.8,2.6,5.8,5.8c0,3.2-2.6,5.8-5.8,5.8C244,99.2,241.4,96.6,241.4,93.4 M247.2,100.1c3.7,0,6.7-3,6.7-6.7s-3-6.7-6.7-6.7
		s-6.7,3-6.7,6.7S243.5,100.1,247.2,100.1 M203.9,70.2l3.3-10.7h8.5c0,0,5.5,0.3,3.1,6.1c-1,2.3-4.6,4.6-7,4.6H203.9z M205.1,56.8
		l-9.6,31.4h3.1l4.5-15.2c0,0,5-0.1,8.6,0c3.7,0.1,2.6,4.1,2.6,4.1L213.5,88h3.7c0,0-0.3-2.4,0.3-9.3c0.6-6.9-2.5-7.2-2.5-7.2
		s7.7-2.8,7.4-8.3c-0.3-6.3-6-6.5-6-6.5H205.1z M183.8,56.8l-9.6,31.4h19.6l1.1-3.3h-16.3L182,73h14.2l0.8-2.7H183l3.5-10.7h14.2
		l1-2.8H183.8z M153.8,69.1c0,0-2.7,6.3-1.3,13.4c1.3,6.3,9.8,6.3,9.8,6.3c10,0,12.1-7.9,12.1-7.9h-3.9c0,0-1.5,5.1-8.2,5.1
		c-6.6-0.1-7-3.9-7-6.7c-0.1-3.1,0.6-6.2,0.6-6.2c1.5-5.6,3.3-7.5,3.3-7.5c1.4-2.5,3.1-4.2,5.2-5.5c2.3-1.5,4.8-1.2,4.8-1.2
		c7.8-0.2,6.1,6.7,6.1,6.7h3.4c0.8-7.6-5.6-8.9-9.4-8.9c-3.8,0-7.5,2.1-7.5,2.1C157.1,61.3,153.8,69.1,153.8,69.1 M178.8,26.8l1-2.7
		h-17.9l-9.6,31.4h19.4l0.6-3.2h-16l3.9-12h14.3l0.6-2.2H161l3.4-11.4H178.8z M202.4,32.4c0.8-7.6-5.6-8.9-9.4-8.9
		c-3.8,0-7.5,2.1-7.5,2.1c-4.8,2.5-8.1,10.3-8.1,10.3s-2.7,6.3-1.3,13.4c1.3,6.3,9.8,6.3,9.8,6.3c10,0,12.1-7.9,12.1-7.9h-3.9
		c0,0-1.6,5.1-8.2,5.1c-6.6-0.1-7-3.9-7-6.7c-0.1-3.1,0.6-6.2,0.6-6.2c1.5-5.6,3.3-7.5,3.3-7.5c1.4-2.5,3.1-4.2,5.2-5.5
		c2.3-1.5,4.8-1.2,4.8-1.2c7.8-0.2,6.1,6.7,6.1,6.7H202.4z M221.9,45.9c0,0-3.3,6.7-10.7,6.9c-6.5,0.2-7.2-4.6-7.2-4.6
		s-0.9-3.4,0.4-8.6c0,0,1.2-5.2,3.3-8.2c2.5-3.6,4.8-5.6,10-5.7c0,0,7.2-0.6,7.6,6.7C225.6,39.6,221.9,45.9,221.9,45.9 M228.6,37.1
		c0.7-6.7-0.6-10.1-5.2-12.9c-4.6-2.8-12-0.5-13.8,1.1c0,0-2.1,1-5.1,4.6s-4.2,11.1-4.2,11.1s-1.1,6,1.8,10.5c3,4.5,9.4,3.9,9.4,3.9
		c8.4-0.1,12.5-6.7,12.5-6.7C224,48.6,228,43.1,228.6,37.1 M243.4,59.3l1-3.1h-21l-1.1,3.1h9.7l-8.7,28.9l3.4-0.1l8.5-28.8H243.4z
		 M253.3,56.1H248l-0.9,3.2h5.9c-1.4,12.2-10.7,23.4-25.5,30.5c-10.2,4.9-23,7.4-36.7,7.4c-34.9,0-60.4-17.7-60.4-39.3
		c0-0.8,0.2-1.6,0.2-2.4h17.9l0.9-2.8h-18.5c2.3-12.5,12.8-25.1,29-30.6c9.6-3.3,20.8-5.4,32.8-5.4
		C227.5,16.8,253.3,34.7,253.3,56.1 M252.2,42.2c-9.5-19.2-33-30-61.2-30.1c-14.4-0.1-27.4,3.5-38.7,9.6
		C136.6,30.2,128,43.1,128,57.3c0,24.4,27.8,44,62.3,44c14.5,0,29-2.6,40.3-8.8c15.6-8.6,24.3-22.2,25.1-36.3
		C256,51.2,254.5,46.7,252.2,42.2"/>
	<path class="st0" d="M360.3,80.8l4.7-9.6v9.6H360.3z M363,60.1l-15.8,32.2h7.4l2.7-5.4h7.7v5.4h6.9V60.1H363z M340.3,66.5
		l-7.2,25.7h7.7l7.2-25.7h6.7l1.8-6.4h-20.8l-1.8,6.4H340.3z M315,74.7c1.1-3,3.8-11,8.4-13.5c2.8-1.3,4.5,1.3,3.8,4.8
		C326.6,69.6,323.5,73.7,315,74.7 M309,78.6c-3.3,11.6,4,14.7,5.8,14.7s7.1-0.2,12.3-9.1c0.6-0.9-0.3-1.1-0.8-0.3s-3.6,5.3-8.1,5.3
		c-4.5,0-6.1-6.3-3.8-12.9c5.4-1.1,19-3.8,17.7-12.5c-0.8-2.8-2.9-4-6.2-3.8C322.8,59.9,313.4,63,309,78.6 M295,75l2.3-8.4h2.4
		c2.8,0,3,1.2,2.9,3c-0.1,1.8-1.3,5.5-6.6,5.4H295z M292.1,60.1l-8.9,32.2h7l3.1-11h5c4.3,0,11.1-3.3,11.7-11.5
		c0.6-8.2-4.1-9.6-8.8-9.6H292.1z M359.8,27.5c0-0.7,0.6-1.2,1.2-1.2c0.7,0,1.2,0.6,1.2,1.2c0,0.7-0.6,1.2-1.2,1.2
		C360.3,28.8,359.8,28.2,359.8,27.5 M371.5,50.3c-5.2-2.1-9.8-3.7-16-4.3c3.1-3,5.8-6.5,5.7-12.1c3.3-0.1,7-0.3,7.4-2.7
		c0.7-4-7-9.6-11.7-9.4c-2.7-4.7-5.4-9.5-11.7-10.7c0.7,5.7,5,9.6,8,13.7c-1.1,1-2.2,3.6-4.1,3.9c-2.1,0.3-6.1-1-9-1.4
		c-8.9-1.2-20-1.8-28.9,0.2c-3.3-3.1-9-0.6-7.6,3.7c0.6,1.7,2.2,1.9,3.1,3.3c-1.1,1.9-1.4,4.7-2.5,6.6c-2.6,0.9-4.3,2.5-6.6,3.7
		c-1.6-0.5-3.7-0.4-5.3-0.8c-3.2,4-7.9,6.6-9.2,12.5c5.8,1.3,5.8-4.3,9.8-5.9c2.7-1.1,6.9-1.3,10.5-1.8c13-2.1,27.3-3.1,41,0
		c3.3,0.7,6.3,2.1,9.6,2.9c3,0.7,7,1.2,10.7,1.8c1.4,0.2,9.2,2.8,10,0.4C375.7,51.3,372.8,50.8,371.5,50.3"/>
	<path class="st0" d="M596.4,54.6v-6.3l-0.2-4.6l3.8,10.9h1.9V37h-2.4v5.8l0.2,4.8L596,37h-2.1v17.6H596.4z M591.4,49.7v-8.1
		c0-1.6-0.3-2.8-0.9-3.6c-0.6-0.8-1.6-1.2-2.9-1.2c-2.6,0-4,1.6-4,4.8v8.1c0,1.7,0.3,3,0.9,3.9c0.6,0.9,1.6,1.3,3,1.3
		s2.3-0.4,2.9-1.3C591.1,52.7,591.4,51.4,591.4,49.7 M586.4,49.7v-8.2c0-0.8,0.1-1.4,0.3-1.8c0.2-0.4,0.5-0.6,1-0.6
		c0.5,0,0.8,0.2,0.9,0.6c0.2,0.4,0.2,1,0.2,1.8v8.2c0,1-0.1,1.7-0.2,2.1s-0.5,0.6-1,0.6c-0.5,0-0.8-0.2-1-0.6
		C586.4,51.5,586.4,50.7,586.4,49.7 M576.7,39.1h0.9c0.4,0,0.8,0.1,0.9,0.3c0.2,0.2,0.3,0.7,0.3,1.4v1.1c0,0.9-0.1,1.5-0.2,1.8
		c-0.1,0.3-0.4,0.4-0.9,0.4h-1V39.1z M576.7,46.1h1.1c0.5,0,0.8,0.2,1,0.6c0.2,0.4,0.3,1,0.3,1.9V50c0,0.9-0.1,1.6-0.3,2
		c-0.2,0.4-0.6,0.6-1.1,0.6h-1V46.1z M581.4,41c0-1.4-0.3-2.5-0.8-3.1c-0.5-0.6-1.5-0.9-2.8-0.9H574v17.6h3.9c1.4,0,2.4-0.4,3-1.2
		c0.6-0.8,0.9-2.1,0.9-3.8v-0.5c0-2.3-0.6-3.7-1.9-4.2c1-0.4,1.5-1.6,1.5-3.5V41z M566.5,39h0.9c0.6,0,1,0.1,1.1,0.4
		c0.2,0.3,0.2,0.9,0.2,1.9v0.1c0,0.8,0,1.3-0.1,1.7c-0.1,0.4-0.2,0.6-0.3,0.8c-0.2,0.2-0.4,0.2-0.8,0.2h-1.1V39z M568.5,46.7
		c0.2,0.3,0.3,0.8,0.3,1.6c0,4.1,0,6.2,0.1,6.3h2.7c-0.1-0.2-0.1-1.4-0.1-3.6c0-2.3-0.1-3.7-0.4-4.5c-0.2-0.7-0.7-1.1-1.3-1.2
		c0.6-0.2,1-0.6,1.3-1.1c0.2-0.6,0.3-1.4,0.3-2.4s-0.1-1.9-0.2-2.6c-0.1-0.7-0.4-1.2-0.9-1.6c-0.5-0.4-1.1-0.6-2.1-0.6h-4.4v17.6
		h2.7v-8.3l0.9,0C567.9,46.3,568.3,46.5,568.5,46.7 M555.8,54.6l0.4-3.1h2.8l0.4,3.1h2.5L559.3,37h-3.5l-2.5,17.6H555.8z
		 M556.4,49.3l1.1-8.9h0l1.2,8.9H556.4z M551.8,49.8v-2.5h-2.6v2.5c0,1-0.1,1.6-0.2,2.1c-0.2,0.4-0.5,0.6-0.9,0.6
		c-0.4,0-0.7-0.2-0.9-0.6c-0.2-0.4-0.2-1.1-0.2-2v-8.2c0-0.9,0.1-1.5,0.3-1.9c0.2-0.4,0.5-0.6,0.9-0.6c0.4,0,0.7,0.2,0.9,0.6
		c0.2,0.4,0.2,1,0.2,1.9v2.3h2.6v-2.4c0-3.1-1.2-4.7-3.7-4.7c-0.7,0-1.3,0.1-1.8,0.4c-1.4,0.7-2.1,2.3-2.1,4.9v7.7
		c0,1.6,0.3,2.9,1,3.8c0.6,0.9,1.6,1.3,2.9,1.3c1.3,0,2.3-0.4,2.9-1.2C551.5,52.8,551.8,51.5,551.8,49.8"/>
	<path class="st0" d="M606.3,76.4v-2.3h-3.4V58.8h-2.7v17.6H606.3z M592.2,76.4l0.4-3.1h2.8l0.4,3.1h2.5l-2.7-17.6h-3.5l-2.5,17.6
		H592.2z M592.8,71.1l1.1-8.9h0l1.2,8.9H592.8z M583,60.9h0.9c0.6,0,1,0.1,1.1,0.4c0.2,0.3,0.2,0.9,0.2,1.9v0.1c0,0.8,0,1.3-0.1,1.7
		c-0.1,0.4-0.2,0.6-0.3,0.8c-0.2,0.2-0.4,0.2-0.8,0.2H583V60.9z M585,68.5c0.2,0.3,0.3,0.8,0.3,1.6c0,4.1,0,6.2,0.1,6.3h2.7
		c-0.1-0.2-0.1-1.4-0.1-3.6c0-2.3-0.1-3.7-0.4-4.5c-0.2-0.7-0.7-1.1-1.3-1.2c0.6-0.2,1-0.6,1.3-1.1c0.2-0.6,0.3-1.4,0.3-2.4
		c0-1.1-0.1-1.9-0.2-2.6c-0.1-0.7-0.4-1.2-0.9-1.6c-0.5-0.4-1.1-0.6-2.1-0.6h-4.4v17.6h2.7v-8.3l0.9,0
		C584.4,68.1,584.8,68.3,585,68.5 M576.8,76.4V61.1h2v-2.3h-6.7v2.3h2.1v15.3H576.8z M570.7,71.9V58.8H568v13.1c0,0.5,0,1-0.1,1.3
		c0,0.3-0.1,0.6-0.3,0.8c-0.2,0.2-0.4,0.3-0.8,0.3c-0.4,0-0.6-0.1-0.8-0.2c-0.1-0.2-0.2-0.3-0.3-0.5c-0.1-0.2-0.1-0.8-0.1-1.7V58.8
		h-2.7v13.1c0,1.6,0.3,2.8,0.9,3.6c0.6,0.8,1.6,1.2,3,1.2c1.4,0,2.3-0.4,3-1.1C570.4,74.7,570.7,73.5,570.7,71.9 M560.9,76.4v-2.3
		h-3.3v-5.6h3.1v-2.3h-3.1v-5.1h3.2v-2.3h-5.9v17.6H560.9z M546.6,76.4v-6.3l-0.2-4.6l3.8,10.9h1.9V58.8h-2.4v5.8l0.2,4.8l-3.7-10.6
		h-2.1v17.6H546.6z"/>
	<path class="st0" d="M615.8,56.7c0,23-18.7,41.7-41.7,41.7c-23,0-41.7-18.7-41.7-41.7c0-23,18.7-41.7,41.7-41.7
		C597.2,15,615.8,33.7,615.8,56.7 M619.8,56.7c0-25.2-20.4-45.6-45.6-45.6c-25.2,0-45.6,20.4-45.6,45.6s20.4,45.6,45.6,45.6
		C599.3,102.3,619.8,81.9,619.8,56.7"/>
	<path class="st0" d="M38.3,12H43c6.7,0.5,12.9,2.7,17.8,6c4.9,3.3,9.1,7.7,11.9,12.8c2.8,5.2,5.1,11.9,4.6,19.8
		c-0.3,3.8-0.8,7.2-2,10.2c-1,2.6-2.3,5.1-3.5,7.3c-0.2,0.3-0.3,0.8-0.6,0.8c-0.4-0.2-0.8-0.3-0.7-0.6c0.1-0.3,0.4-0.6,0.5-0.9
		c3.3-6,5.9-13,5.1-21.9c-0.4-4.5-1.5-8.1-3-11.6c-3-6.8-7.9-12.1-13.9-15.8c-3-1.9-6.5-3.4-10.4-4.2c-1.9-0.4-3.9-0.8-6-0.9
		c-7.1-0.4-13,1.2-17.9,3.6C18.3,20,13.1,24.9,9.5,31.2c-2.7,4.7-4.6,10.7-4.6,17.3c0,11.4,4.4,20.1,10.8,25.9
		c4.6,4.1,10.2,7.2,17.1,8.9c0.9,0.2,1.9,0.4,2.9,0.7c-0.1,0.3-0.1,0.6-0.2,0.8c-0.5,0.1-0.9-0.1-1.4-0.2c-1.8-0.4-3.2-0.8-4.7-1.2
		C15.3,78.7,5.3,68.4,3.9,51.1v-4.7C4,44,4.5,41.4,5.1,39.1c1.8-6.8,5.4-12.3,9.6-16.4C20.6,17,28.2,12.9,38.3,12"/>
	<path class="st0" d="M109.4,73.5c1.6,1.3,4.4-0.3,3.3-2.7c-0.2-0.5-1.1-1.1-1.9-1.1C108.7,69.8,108,72.3,109.4,73.5 M113.2,71.2
		v1.3c-0.5,1.6-2.2,2.4-3.6,1.6c-0.7-0.4-1.6-1.5-1.4-2.7C108.7,68.7,112.8,68.7,113.2,71.2"/>
	<path class="st0" d="M67.3,77.3c-0.2,0.9-0.2,2.8-0.2,4.2c0,0.8,0.1,2,0.4,2.4c0.6,1.3,2.7,1.9,4.1,1c1.2-0.8,1.2-2.7,1.2-4.5
		c-0.1-1.7,0.2-3.5-0.3-4.4c-0.4-0.7-1.7-1.2-2.6-1.1C68.5,75.2,67.5,76.1,67.3,77.3 M73.8,72.9c0.8-0.8,1.2-2.1,2.3-2.4
		c1.5-0.4,3,0.6,4.6,0.6c0.8,0,1.6-0.4,2.2-1c0.3,1.1-0.6,2.3-1.1,2.9c-0.4,0.4-1.1,0.9-1.7,0.9c-1.6,0.1-2.2-1.1-3.5-1.3
		c-0.5-0.1-1.3,0.3-1.2,0.9c0.1,0.7,1.2,1.1,1.7,1.5c1.3,1.1,2.7,3.3,2.2,5.8c-0.3,1.4-1.4,2.9-2.2,3.6c-0.6,0.5-2.5,1.2-2.1,2.2
		c0.1,0.4,0.9,0.5,1.4,0.6c1,0.3,1.5,0.8,2,1.4c0.7,1.2,1.5,2.4,1.1,4.2c-0.4,2-1.8,3.9-3.3,5.2c-1.4,1.1-3,2-4.9,2.3
		c-3.4,0.4-6.7-1.2-8.2-3c-1.6-1.9-1.8-5-0.7-7.2c0.6-1.3,2.4-3.1,4.5-3.1c1.7,0,3.4,0.7,4.2,1.7c0.3,0.4,0.4,0.8,0.6,1.3
		c-0.1,1.4-1.1,2.6-2.5,2.3c-0.8-0.2-1.2-1.1-1.9-1.4c-2.4-0.1-2.8,2.1-2,3.5c1.2,2.3,4.4,3.2,6.9,1.6c1.9-1.2,3.8-3.9,2-6.1
		c-1.3-1.6-3.4-2.4-5.6-3c-2.4-0.6-4.3-1.2-5.7-2.9c-0.6-0.7-1-1.7-1.4-2.8c-0.5-1.6,0.1-3.9,0.9-5.1c0.7-1.2,2-2.3,3.4-3
		C68.3,72.2,71.1,72.2,73.8,72.9"/>
	<path class="st0" d="M110.1,71.7c0.4,0,0.9,0.1,1.3,0c0.2-0.2,0.1-0.6,0.1-0.8c-0.4-0.1-0.9,0-1.3,0V71.7z M111.9,73.3h-0.4
		c0-0.4,0.1-0.9-0.2-1c-0.3-0.1-0.8,0-1.2,0v1.1h-0.4c-0.1-0.9-0.1-2,0-2.9c1.3,0,2.5-0.2,2.3,1c0,0.2-0.3,0.4-0.3,0.5
		c0,0.1,0.2,0.3,0.3,0.4C112,72.7,111.8,73,111.9,73.3"/>
	<path class="st0" d="M55.5,75.4c-0.7-0.7-2-0.9-2.7-0.4c-1.1,0.8-1.5,2.6-1.5,4.3c1.6,0.1,3.7,0.1,5.1,0
		C56.8,77.8,56.4,76.3,55.5,75.4 M60.8,81.8c-3.3,0-6.5,0-9.6,0c-0.1,1.9,0.1,3.7,1.1,4.7c0.6,0.6,1.7,1.1,2.7,1.1
		c2.4,0,3-2.6,5.2-2.8c1.2,0.4,0.3,1.6-0.2,2.4c-1.1,1.7-2.7,3-4.9,3.2c-2.7,0.3-5.4-1.5-6.7-3.3c-1.6-2.1-2.5-5.9-1.8-8.6
		c1-4,5.1-7.5,9.5-6.1c2.3,0.7,3.8,2.1,4.7,4.4C61.4,78.4,61.6,80.3,60.8,81.8"/>
	<path class="st0" d="M87.2,82.4c-0.8,0.5-2.2,0.9-3,1.5c-0.5,0.4-1.3,1.1-1.5,1.7c-0.2,1.1,1,2,2.5,1.8c2.3-0.3,2.6-3.3,2.6-5.4
		C87.6,82.1,87.4,82.3,87.2,82.4 M110.9,90.2c-2.6,0-5.4,0.1-7.9-0.1c0.1-0.4-0.1-0.9,0.1-1.3c0.2-0.7,1.2-0.6,1.4-1.1
		c0.1-0.2,0-0.8,0-1.3c0-1.4,0.1-2.9,0.2-4.5c0.1-1.6,0.1-3.5-0.3-4.4c-0.7-1.4-2.6-1.2-3.6-0.1c-1.1,1.6-0.7,4.8-0.8,7.5
		c0,0.6-0.1,1.9,0.1,2.5c0.4,0.7,1.9,0.6,2.3,1.4c0.2,0.4,0.2,0.9,0.1,1.6c-2.9-0.1-6-0.1-8.7,0c-0.6,0-1.3,0-1.9,0
		c-0.7,0-1.6,0-2.2-0.3c-0.4-0.1-0.7-0.6-1.2-0.7c-0.8-0.2-2.3,0.5-3,0.7c-0.9,0.2-2.1,0.5-3.2,0.4c-0.7-0.1-1.3-0.6-2.1-0.9
		c-1.4-0.9-2.8-3.6-1.3-5.5c1.3-1.6,4.5-2.6,6.6-3.7c0.8-0.5,1.6-0.9,2-1.4c1.1-1.3,0.2-3.6-1.3-3.9c-1-0.3-2.8,0.4-2.8,1.7
		c-0.1,1.1,0.9,1.7,0.9,2.6c0,0.9-0.6,1.3-1.3,1.5c-1.8,0.6-3-1-3.1-2.6c0-1.7,1-3.2,2.3-4c1.2-0.7,3.2-1.1,5.3-0.9
		c1.8,0.1,3.3,0.8,4.2,1.8c0.3,0.4,0.7,1,0.9,1.7c0.1,0.6,0,1.2,0,1.8c-0.1,1.4-0.1,2.7-0.2,4.1c0,1-0.2,2.4-0.1,3.5
		c0.2,1.7,1.3,2.6,3.2,1.7c0.4-0.6,0.3-1.5,0.4-2.3c0.1-1.8,0.1-3.4,0.2-5.2c0-0.8,0.1-2.1-0.1-2.6c-0.3-0.7-2-0.7-2.1-1.8
		c-0.1-1.6,2.3-2.1,3.3-2.6c1-0.4,2.1-0.9,3.2-0.2c0.3,0.4,0.4,1.2,0.3,1.7c1.2-0.8,1.9-2.1,3.8-2c1.8,0.1,3.7,1.1,4.3,2.7
		c0.5,1.3,0.3,5,0.2,7.2c0,0.8,0,1.6-0.1,2.3c-0.1,0.7-0.3,2.1,0,2.7c0.4,0.7,1.4,0.4,1.9,1C110.9,89,110.9,89.5,110.9,90.2"/>
	<path class="st0" d="M41.8,26.1c-0.9-0.1-1.8-0.6-2.5-1c0,1-0.1,1.8-0.5,2.4c-1,0-1.5-0.5-2.3-0.7c-0.1,0.8-0.5,1.6-0.3,2.4
		c3.3-2,7-3.6,11.5-4c-0.2-0.4-0.4-0.7-0.5-1c-0.7,0.5-1.3,1.2-2.5,1.2c-0.3-1.5-1-2.5-1.9-3.2C42.5,23.2,41.9,24.6,41.8,26.1
		 M52.3,22.6c0.1-0.3,0.3-0.8,0.2-0.7c-1.6,1-3,2.2-4.5,3.2c1.6,0.1,3.5,0.4,4.3,1.4c1.3,1.7,0.1,3.8-0.7,5.1
		c-1.1,1.7-2.2,3.1-4,3.6c0.5-0.9,1.3-1.7,2-2.5c1-1.1,2.4-2.3,2.3-4.1c0-2.7-2.9-2.7-5.6-2.7c-0.8,0-1.8,0.3-2.8,0.6
		c-0.9,0.3-1.9,0.6-2.7,1c-3.3,1.4-6.6,3.5-8.8,6c-1.1,1.3-2.5,2.7-3,4.4c-0.2,0.8,0.1,1.6,0.2,2.2c0.8,0.8,2.1,1.5,3.6,1.5
		c0.9,0,1.9-0.3,2.8-0.5c2.2-0.5,4.3-1.5,6.3-2.5c2-1,3.6-2.5,5.5-3.2c-1.4,2-3.8,3.4-6.3,4.6c-2.5,1.2-5.3,2.3-8.2,2.4
		c-2.4,0.1-4.7-0.9-5-2.8c-0.3-1.9,0.8-3,1.6-4.1c0.6-0.9,1.2-1.7,1.9-2.4c1.5-1.5,3.1-2.7,4.7-3.8c-1.5-0.1-2-1.2-3.6-1.3
		c-0.4,1.1,0.5,2,0.5,3.3c-1.2,0.6-3.7,0.9-5.3,0.4c0.2,0.5,0.3,0.9,0.6,1.2c0.4,0.5,1,0.7,1.4,1.2c-0.6,0.4-1.5,0.5-2.2,0.7
		c-1.2,0.4-2.2,1.1-3.2,1.6c1.4,0.1,2.6-0.3,3.7-0.3c-1.5,1.3-3.5,2.2-5.1,3.4c1.1,0,3.1,0,4.2,0.1c-0.2,0.8-0.9,1.3-1.4,1.9
		c-0.3,0.5-0.6,1-1,1.4c-0.1,0.1-0.4,0.2-0.3,0.3c1.6-0.2,2.8-0.6,4.3-0.6c-0.3,1.3-1.3,2.1-1.6,3.2c1.6-0.8,3.2-1.6,4.9-2.3
		c0.1,1,0.1,2.3,0,3.1c0.5-0.3,0.9-0.5,1.2-0.8c0.6-0.6,0.9-1.5,1.3-2.3c0.2-0.3,0.5-0.7,0.9-0.6c0.1,0.9,0.5,1.6,0.7,2.4
		c1.2-1.3,1.5-3.6,3.6-4c0.2,1.2,0.1,3,0,3.8c1-0.8,1.6-1.9,1.9-3.4c1.3,0.1,1.7,0.6,2.6,1c0.2-1.3,0-2.8,0.7-3.6
		c1.1,0.1,1.6,0.8,2.4,1c0.1-1.1-0.6-1.3-0.6-2.2c0.8-0.1,2.2-0.4,3.1,0c0.6-0.7,0-1.4,0-2.3c1.3,0,2.3,0.9,3.7,0.5
		c-0.9-0.7-1.8-1.7-1.7-3.1c1.4,0.1,3,0.7,4.6,0.3c-0.6-0.3-1.1-0.8-1.8-1.1c-0.6-0.3-1.4-0.5-1.9-1c1-0.7,2.3-0.8,3.3-1.3
		c-1,0-2.4,0.3-2.6-0.7c0.6-0.1,1.2-0.3,1.6-0.6c1-0.5,1.8-1.3,2.4-2.1c-1.3,0.4-2.4,1-3.8,1.1c0.4-1.4,1.2-2.3,1.5-3.8
		c-0.5,0.3-1.1,0.7-1.6,1c-0.6,0.4-1.1,0.9-1.8,1C51.7,24.5,51.9,23.4,52.3,22.6 M55.9,25.3c1.8-0.3,3.4-1,5.8-0.6
		c-0.8,0.6-1.9,1-2.7,1.7c-0.5,0.4-0.8,0.9-1.1,1.5c1.2,0.1,2.1-0.6,3-0.9c-1,2-2.9,3.1-5,4c0.7,0.8,1.8,1.3,2.8,1.9
		c0.3,0.2,0.7,0.4,0.8,0.7c-0.2,0.3-0.6,0.3-0.8,0.3c-1.1,0.3-2.7,0.5-4.8,0.4c0.2,0.6,0.6,1.1,1,1.5c0.6,0.4,1.4,0.7,1.7,1.4
		c-1.6-0.2-3.4-0.1-5.2,0.2c-0.3,1.6-0.4,3.6-0.7,5.4c-1-0.9-0.1-3.5-1.7-3.9c-0.5,1.1-1,2.7-0.7,4.3c-0.9-0.6-1.3-1.8-2.4-2.2
		c0.1,3.2,0.1,6.2-0.3,9.1c-0.4,2.5-1.5,4.4-2.4,6.5c-0.8,2.1-1.9,4.2-2.2,6.7c-0.6,5.2,1.3,9.5,1.1,15.4c0.7-0.5,0.9-1.6,1.4-2.5
		c2-4.5,4.8-8.3,7.8-11.9c0.6-0.7,1.2-1.4,1.9-2c0.7-0.6,1.5-1.2,1.8-2.1c-1.8,0.1-3.3,0.6-4.5,1.6c-1.5,1.2-2.1,3.1-2.8,5.1
		c0,0.4,0,0.7-0.3,0.8c-0.7-1.7-1.2-4.4-0.5-6.4c0.6-1.9,2.3-3.6,4.3-4.1c0.9-0.3,2-0.3,3-0.6c1,0,2,0,2.8-0.1
		c1.3-0.1,2.3-0.8,3.2-1.4c1-0.7,1.9-1.3,2.7-2c0.1,0.3-0.1,0.6-0.3,0.9c-0.4,0.9-1.1,1.6-1.5,2.5c-0.7,1.2-1.2,2.4-1.4,4
		c-0.2,2.4-0.5,4.3-1.9,5.7c-0.9,1-1.7,1.5-3.3,1.9c-1.1,0.3-2.2,0.5-3.2,0.1c-1.7,1.4-2.9,3.9-4,6.2c-2.1,4.3-3.2,9.6-3.2,15.7h-6
		c-0.8-7.4-2.6-14.6-5.7-20.1c-1.5-2.6-3.1-5.1-4.9-7.4c-1.4-1.7-2.9-3.3-4.6-4.7c-0.5-0.4-1.2-0.9-1.4-1.7c2.2,0.3,3.9,1.3,5.5,2.4
		c4.1,2.9,7.1,6.6,9.5,11.2c0.9,1.6,1.4,2.9,2,4.9c0.2,0.6,0.5,2,0.7,2c0.3,0,0.3-0.6,0.3-1c0-2.4-0.4-4.1-0.5-6.4
		c-0.1-1.9-0.2-3.3-0.1-4.9c0.1-1.6,0.5-3.1,0.9-4.5c0.4-1.4,0.9-2.7,1.4-3.9c1.1-2.6,2.5-4.9,2.9-8.1c0.1-1.1,0.1-2.3,0.1-3.6
		c-0.6-0.4-1.1-0.5-1.8-0.8c-0.8,2.1-2.1,3.7-3.9,4.8c0-1.3,0.5-3,0.1-4.4c-1,0.8-1.6,2.3-2.1,3.8c-0.2,0.5-0.3,1-0.6,1.4
		c-0.4-1-0.7-1.9-1-3c-2,0.9-2.7,3.2-5.3,3.5c0.7-1.2,0.9-2,1.2-3.6c-0.9,0.1-1.9,0.5-2.8,1c-0.9,0.5-1.8,0.9-2.4,1.6
		c-0.4,0.4-0.7,1-1.1,1.3c-0.6-2.2,1.1-3.7,1.6-5.6c-1,0.1-2,0.2-2.9,0.5C22.1,45,21,45.7,19.9,46c0.7-1.1,1.6-1.9,2.4-2.8
		c0.8-0.9,1.7-1.8,2.4-2.7c-0.9,0.1-1.9,0-2.7,0.1c-1.3,0.2-2,1.3-3.2,1.3c0.2-0.5,0.7-0.9,1.1-1.2c1.1-1.1,2.3-2.3,3.4-3.4
		c-1.3-0.1-3.1,0.1-3.9-0.5c0-0.3,0.4-0.2,0.5-0.3c2.4-0.9,4.7-2.4,7.4-3c-0.2-1.4-1.8-3-1.1-4.9c0.3,0.2,0.4,0.5,0.6,0.9
		c1.1,0.9,2.6,1.2,4.8,1.1c-0.4-1.6-0.9-4-0.3-5.9c0.4,0.3,0.6,0.9,1,1.3c0.7,0.7,1.7,1.1,2.7,1.3c0.5-1.4,0.2-3.3,1.4-3.8
		c0,1.4,0.4,2.3,1.5,2.6c0.6-1.4-0.2-2.6-0.3-3.9c0.7,0.4,1.2,1.1,1.9,1.5c0.2,0.1,0.6,0.1,0.7,0.4c0.3,0,0.5,0.2,0.8,0.2
		c0.6-1.1,0.9-3.1,0.4-4.5c2.4,0,3.1,2,4.2,3.3c1-1.4,1.9-2.9,3.5-3.8c0,0.5-0.4,0.9-0.6,1.5c-0.2,0.9-0.1,2,0.3,2.7
		c1.6-1.2,3.2-2.4,4.8-3.6c0.5-0.4,1.1-0.9,1.8-1c0.3,0.4-0.2,0.6-0.4,0.8c-0.6,0.7-0.9,1.8-1.2,2.7c1.9-0.2,2.7-1.7,4.4-2.3
		c0,0.3-0.6,0.9-0.9,1.2C56.6,22.6,56.2,23.8,55.9,25.3C56,25.3,55.9,25.3,55.9,25.3"/>
</g>
</svg>
