<?xml version="1.0" encoding="utf-8"?>
<!-- Generator: Adobe Illustrator 27.0.1, SVG Export Plug-In . SVG Version: 6.00 Build 0)  -->
<svg version="1.1" id="Ebene_1" xmlns="http://www.w3.org/2000/svg" xmlns:xlink="http://www.w3.org/1999/xlink" x="0px" y="0px"
	 viewBox="0 0 595.3 841.9" style="enable-background:new 0 0 595.3 841.9;" xml:space="preserve">
<style type="text/css">
	.st0{fill:#E30613;}
	.st1{fill:#164194;}
</style>
<g>
	<path class="st0" d="M155.9,351.5c0-30.1,24.4-54.4,54.4-54.4s54.4,24.4,54.4,54.4c0,30.1-24.4,54.4-54.4,54.4
		S155.9,381.5,155.9,351.5"/>
	<path class="st1" d="M210.4,544.9c-7.4,0-13.5-6.6-13.5-14.7V441c0-8.1,5.8-14.7,13.5-14.7c85.7,0,92.4-115.9,215.5-115.9
		c7.4,0,13.5,6.6,13.5,14.7v88.3c0,8.1-6,14.7-13.5,14.7C342,428,336.8,544.9,210.4,544.9"/>
</g>
</svg>
