<svg xmlns="http://www.w3.org/2000/svg" viewBox="0 0 800 600"><path fill="#006ebe" d="M0 0h800v599.002h-800z"/><path d="M173.473 348.966h-16.161l-22.817-69.254-11.839 69.254h-16.19l17.627-103.072h16.228l22.817 68.972 11.845-68.972h16.19l-17.7 103.072zM240.824 303.547c0-4.922-1.163-8.79-3.487-11.6-2.327-2.814-5.273-4.219-8.844-4.219-3.01 0-5.826 1.031-8.458 3.093-2.629 2.062-4.933 5.647-6.906 10.756-1.973 5.112-2.96 10.408-2.96 15.891 0 5.578 1.209 9.912 3.628 13.008 2.422 3.093 5.417 4.639 8.985 4.639 4.51 0 8.34-2.39 11.488-7.171 4.368-6.563 6.554-14.695 6.554-24.397m-47.177 14.413c0-12.233 2.765-22.638 8.297-31.217 6.14-9.42 15.021-14.131 26.647-14.131 8.717 0 15.666 2.952 20.847 8.858 5.178 5.907 7.767 14.131 7.767 24.677 0 12.375-3.223 22.886-9.665 31.534-6.448 8.648-14.871 12.971-25.276 12.971-8.487 0-15.375-2.929-20.671-8.787-5.296-5.86-7.946-13.828-7.946-23.905" fill="#fff"/><path d="M284.287 318.569c0 5.117 1.181 9.224 3.539 12.319 2.362 3.099 5.083 4.648 8.168 4.648 2.476 0 4.93-1.042 7.363-3.133 2.428-2.088 4.576-5.843 6.445-11.266 1.872-5.419 2.805-11.113 2.805-17.074 0-5.492-1.132-9.716-3.398-12.674-2.266-2.955-4.965-4.435-8.098-4.435-4.766 0-8.763 3.099-11.986 9.293-3.225 6.198-4.838 13.636-4.838 22.322m-22.301 30.396l17.65-103.071h16.62l-5.913 34.451c3.226-2.952 6.123-4.979 8.697-6.082 2.572-1.1 5.331-1.65 8.277-1.65 6.405 0 11.571 2.6 15.499 7.801 3.928 5.204 5.892 12.916 5.892 23.134 0 9.327-1.532 17.728-4.596 25.204-3.067 7.476-6.917 12.996-11.548 16.559-4.634 3.562-9.336 5.342-14.111 5.342-8.752 0-15.185-4.643-19.303-13.927l-2.114 12.239h-15.05zM335.67 348.966l17.647-103.072h16.596l-17.722 103.072h-16.521zM413.852 305.586s1.325-8.834-3.058-14.555c-2.085-2.721-4.795-4.078-8.122-4.078-3.375 0-6.433 1.573-9.175 4.712-2.741 3.141-4.581 7.781-5.517 13.921h25.872zm13.99 12.302h-41.55s-.831 8.923 3.513 13.921c2.499 2.874 5.155 4.501 8.438 4.501 5.437 0 9.725-3.467 12.867-10.404l14.834 3.02c-2.906 7.266-6.773 12.706-11.6 16.315-4.829 3.608-10.243 5.411-16.242 5.411-7.968 0-14.589-3.105-19.862-9.314-5.273-6.211-7.908-14.635-7.908-25.276 0-11.484 2.998-21.595 9-30.338 5.998-8.741 14.387-13.112 25.169-13.112 7.263 0 13.158 2.753 17.682 8.259 4.521 5.509 6.785 13.466 6.785 23.871 0 4.921-.374 9.304-1.126 13.146" fill="#fff"/><path d="M461.428 292.579s17.617.158 22.773-1.757c3.157-1.172 5.754-3.318 7.796-6.434 2.039-3.116 3.061-6.738 3.061-10.862 0-4.452-1.486-7.525-4.455-9.21-1.725-.985-5.702-1.477-11.928-1.477h-12.159l-5.088 29.74zm-9.645 56.386h-17.33l17.624-103.071h33.982c6.459 0 11.424.913 14.891 2.742 3.468 1.828 6.258 4.699 8.372 8.613 2.114 3.914 3.171 8.706 3.171 14.379 0 6.842-1.265 13.135-3.79 18.877-2.529 5.743-5.673 9.996-9.429 12.761-3.758 2.764-8.21 4.639-13.362 5.624-2.788.515-8.317.775-16.588.775h-10.819l-6.722 39.3zM524.152 274.298h15.523l-2.468 14.483c5.785-10.779 12.095-16.17 18.926-16.17 2.373 0 4.956.703 7.755 2.108l-6.327 16.524c-1.52-.656-3.11-.985-4.775-.985-2.609 0-5.057.867-7.335 2.601-3.47 2.672-6.131 6.166-7.982 10.477-1.852 4.314-3.681 11.718-5.486 22.217l-4.093 23.413h-16.521l12.783-74.668zM608.253 303.547c0-4.922-1.163-8.79-3.487-11.6-2.327-2.814-5.273-4.219-8.844-4.219-3.01 0-5.826 1.031-8.458 3.093-2.629 2.062-4.933 5.647-6.906 10.756-1.973 5.112-2.96 10.408-2.96 15.891 0 5.578 1.209 9.912 3.628 13.008 2.422 3.093 5.417 4.639 8.985 4.639 4.51 0 8.34-2.39 11.488-7.171 4.368-6.563 6.554-14.695 6.554-24.397m-47.177 14.413c0-12.233 2.765-22.638 8.297-31.217 6.14-9.42 15.021-14.131 26.647-14.131 8.717 0 15.666 2.952 20.847 8.858 5.178 5.907 7.767 14.131 7.767 24.677 0 12.375-3.223 22.886-9.665 31.534-6.448 8.648-14.871 12.971-25.276 12.971-8.487 0-15.375-2.929-20.671-8.787-5.296-5.86-7.946-13.828-7.946-23.905" fill="#fff"/><path d="M649.383 316.835c0 5.673 1.178 10.194 3.54 13.569 1.799 2.578 4.23 3.868 7.283 3.868 2.496 0 4.982-1.057 7.455-3.165 2.474-2.108 4.614-5.59 6.417-10.439 1.805-4.853 2.707-10.114 2.707-15.785 0-5.532-1.17-9.9-3.505-13.114-2.336-3.208-5.005-4.815-8.012-4.815-2.312 0-4.59.996-6.831 2.989-2.246 1.993-4.314 5.682-6.208 11.073-1.898 5.391-2.846 10.664-2.846 15.819m-19.545 36.138l17.552 3.093c0 3.001.741 5.227 2.221 6.679 1.48 1.454 3.723 2.18 6.733 2.18 2.957 0 5.368-.579 7.225-1.734 1.855-1.155 3.08-3.003 4.334-5.201 3.034-5.315 3.531-17.46 3.531-17.46-5.667 5.811-11.548 8.717-17.633 8.717-5.953 0-10.868-2.531-14.756-7.594-3.888-5.063-5.832-12.654-5.832-22.779 0-9.607 1.411-17.988 4.231-25.135 2.822-7.148 6.485-12.456 10.995-15.926 4.507-3.467 9.097-5.201 13.768-5.201 3.931 0 7.574 1.276 10.926 3.83 3.352 2.555 6.002 6.247 7.943 11.073l2.113-13.218h15.534l-9.955 62.241c-1.976 12.145-3.764 20.51-5.36 25.101-2.206 6.272-5.443 10.779-9.713 13.521-4.271 2.738-10.16 4.109-17.671 4.109-8.775 0-14.987-1.768-19.007-4.838-7.881-6.02-7.179-21.458-7.179-21.458z" fill="#fff"/></svg>